<svg version="1" xmlns="http://www.w3.org/2000/svg" width="909.333" height="909.333" viewBox="0 0 682.000000 682.000000"><path d="M81.9 84v33l.1 16h516V80H82l-.1 4zM508 110.9c.4 1.8 1.6 2.7 4 3.4 1.9.5 3.9 1.2 4.4 1.7.4.4.5 3.6.1 6.9l-.7 6.1h-5.1c-2.9 0-5.6-.4-6.2-.8-1.7-1.2-7.5-9-7.5-10.1 0-1.4 2.3-1.9 4.3-.9 1.5.8 1.7.3 1.7-3.5 0-2.4.3-4.7.7-5.1 1.4-1.3 3.7-.1 4.3 2.3z"/><path d="M504.6 109.7c-.3.3-.6 2.9-.6 5.7 0 3.9-.3 4.7-1.2 3.8-.7-.7-2-1.2-3-1.2-1.5 0-1.2.9 1.8 5 3.4 4.8 3.8 5 8.4 5h4.7l.7-5c.7-5.1.2-7.5-1.4-6.5-.5.3-1.1.1-1.5-.5-.4-.6-1-.8-1.5-.5-.5.3-1.1.1-1.5-.5-.4-.6-1.1-.8-1.6-.5-.5.4-.9-.5-.9-1.9 0-2.5-1.2-4-2.4-2.9zM73.2 154.2c-6 13.5-8.1 19.2-13.3 35.8C42.6 245 25 347 12.5 464.1c-2.6 24.3-9.4 96.3-9.1 96.5.4.5 26.7 1.4 51.1 1.9 15.4.3 33.4.7 40 1 6.6.3 28.4.7 48.5 1 20.1.3 39 .8 42 1 4.8.4 65.1 1.8 84.9 1.9l7.4.1 4.4-11c2.4-6.1 8.4-22.5 13.3-36.5 15.7-45.4 21.6-58.4 31.1-68.1 8.4-8.6 15.9-10 24.5-4.3 10.9 7.2 19.3 23.7 34.4 67.3 7.5 21.7 14.8 41.3 17.8 48l2 4.3 19.8-.1c11-.1 20.8-.4 21.9-.6 1.1-.2 16.4-.6 34-.9 17.6-.4 41.5-.8 53-1.1 11.6-.3 48.9-1.3 83-2.1 34.1-.9 62.1-1.6 62.1-1.7.1-.1-1.1-13.9-2.6-30.7-13.8-150.7-32.2-267.9-53-337-4.9-16.6-7.8-24.2-14.2-38.8l-5-11.2H78.2l-5 11.2zm360.8 5.4c15.2 3.5 23 12.4 23 25.9 0 11.4-7.9 20.2-21.8 24.5-17.4 5.4-37.8 4.8-55.7-1.5-5.4-1.9-10.3-3.4-10.8-3.2-.4.1 6.5 9.1 15.5 19.9 17 20.4 22.5 28.6 27.4 40.3 4 9.8 4 22.1-.1 34.5-4.9 15.3-6.5 16.6-13 10.9-6.2-5.4-6.2-6.1-1.6-15.8 5.4-11.3 6-16.7 3.1-26.3-2.3-7.8-7.4-17.7-12.3-24.3-1.7-2.2-8.5-9.6-15.1-16.5-6.7-6.9-13-13.8-14.2-15.4-1.4-2-2.5-2.8-3.7-2.3-1.4.5-1.6 2.3-1.6 11.6.1 20.2-1.2 22.7-22.8 41.4-24.3 21-28.7 29.3-20.8 38.7 4.1 5 4.3 6.4 1 8.6-6.9 4.5-19-7.9-19-19.6.1-10.5 7.2-20.3 28.7-39 7-6 13.7-12.4 14.9-14.1 3.2-4.5 5.9-15.9 6.6-27.3l.6-9.9-3.5 2.7c-10.9 8.3-41.4 17.6-57.5 17.6-15.9 0-27.3-7.3-30.9-19.6-1.9-6.7-.9-13.4 2.9-19.5 9.1-14.9 36.7-21.4 64-15.3 11.6 2.6 26.1 9 28.2 12.4.4.6 1.7.5 3.7-.6 2.1-1.1 5.1-1.5 9.7-1.3 6.5.3 6.9.2 13.6-4.3 8.6-5.7 21.7-11.5 29.9-13.3 8.3-1.8 23.7-1.8 31.6.1z"/><path d="M288.5 176.9c-9 2.3-21.8 8.4-24.4 11.8-2.5 3.1-2.8 10-.6 14.2 3.8 7.5 19.4 7.6 42 .4 11.6-3.7 27.2-10.9 31.9-14.7l2.8-2.2-7.8-3.8c-15.5-7.6-29.3-9.4-43.9-5.7zM412 177.5c-11.8 2.5-26.7 8.8-33.9 14.4l-2.5 1.9 4 1.2c2.1.6 10 1.4 17.4 1.7 15 .6 26.3-.9 36.4-4.7 6.8-2.6 13.3-8 12.1-10-2.9-4.7-21.2-7.2-33.5-4.5zM1.7 580.6c-.4 3.8-.7 9.2-.7 12v5.2l15.8.6c8.6.3 20.9.9 27.2 1.1 65.5 2.9 188.5 4.7 205.8 2.9l7.3-.7 5.1-7.1c2.7-3.9 5.8-8.8 6.9-10.9l1.9-3.7-13.7-.1c-7.6 0-14.5-.2-15.3-.3-.8-.2-19.3-.7-41-1.1-21.7-.4-39.7-.8-40-1-.3-.1-17.4-.6-38-.9-20.6-.4-42-.9-47.5-1.1-5.5-.2-24.2-.7-41.6-1.1l-31.6-.6-.6 6.8zM646.5 574.6c-2.2.2-28.7.8-59 1.4-30.2.6-78.8 1.7-108 2.5-29.1.8-56.5 1.5-60.8 1.5h-7.9l2.3 3.7c3.1 5.2 8.4 13.3 10.8 16.3l2 2.5 63.3-.1c56.8 0 81.5-.6 174.2-4.1l17.9-.6-.7-8.1c-.3-4.5-.6-9.8-.6-11.9V574l-14.7.2c-8.2.1-16.6.3-18.8.4z"/></svg>